<?xml version="1.0" encoding="utf-8"?>
<svg id="master-artboard" viewBox="0 0 557 505.9622802734375" version="1.1" xmlns="http://www.w3.org/2000/svg" x="0px" y="0px" width="557px" height="505.9622802734375px" enable-background="new 0 0 2340 1560"><rect id="ee-background" x="0" y="0" width="557" height="505.9622802734375" style="fill: white; fill-opacity: 0; pointer-events: none;"/><defs><style id="ee-google-fonts">@import url(https://fonts.googleapis.com/css?family=Akronim:400);</style><path id="text-path-0" d="M 422.72259521484375 466.9261474609375 A 100 -4 0 0 0 499.3262634277344 466.9261474609375 A 100 -4 0 0 0 422.72259521484375 466.9261474609375 Z" style="fill: none; stroke: red; stroke-width: 2;"/></defs>
<metadata><!--?xpacket begin="﻿" id="W5M0MpCehiHzreSzNTczkc9d"?-->

                                                                                                    
                                                                                                    
                                                                                                    
                                                                                                    
                                                                                                    
                                                                                                    
                                                                                                    
                                                                                                    
                                                                                                    
                                                                                                    
                                                                                                    
                                                                                                    
                                                                                                    
                                                                                                    
                                                                                                    
                                                                                                    
                                                                                                    
                                                                                                    
                                                                                                    
                                                                                                    
                           
<!--?xpacket end="w"?-->
	</metadata>

<path fill="#F1910D" d="M890.547,884.544c0-3.805,4.042-5.707,8.085-5.707h41.257c3.923,0,5.588,4.161,5.588,7.966&#10;&#9;&#9;c0,4.399-2.021,8.204-5.588,8.204h-30.794V915.1h17.954c3.566,0,5.588,3.448,5.588,7.253c0,3.21-1.665,7.015-5.588,7.015h-17.954&#10;&#9;&#9;v30.676c0,3.805-4.637,5.707-9.274,5.707s-9.274-1.902-9.274-5.707V884.544z" transform="matrix(1, 0, 0, 1, -784.5283479690552, -516.8113100528717)" style="paint-order: fill;"/><path fill="#F1910D" d="M949.994,938.404v-31.508c0-20.45,12.722-28.06,29.129-28.06c16.408,0,29.249,7.609,29.249,28.06v31.508&#10;&#9;&#9;c0,20.449-12.841,28.059-29.249,28.059C962.716,966.463,949.994,958.854,949.994,938.404z M989.825,906.896&#10;&#9;&#9;c0-8.204-4.043-11.89-10.701-11.89s-10.582,3.686-10.582,11.89v31.508c0,8.203,3.923,11.889,10.582,11.889&#10;&#9;&#9;s10.701-3.686,10.701-11.889V906.896z" transform="matrix(1, 0, 0, 1, -781.8868684768677, -520.3773500919342)" style="paint-order: fill;"/><path fill="#F1910D" d="M1019.308,938.404v-31.508c0-20.45,12.722-28.06,29.129-28.06c16.408,0,29.249,7.609,29.249,28.06v31.508&#10;&#9;&#9;c0,20.449-12.841,28.059-29.249,28.059C1032.03,966.463,1019.308,958.854,1019.308,938.404z M1059.138,906.896&#10;&#9;&#9;c0-8.204-4.043-11.89-10.701-11.89s-10.582,3.686-10.582,11.89v31.508c0,8.203,3.923,11.889,10.582,11.889&#10;&#9;&#9;s10.701-3.686,10.701-11.889V906.896z" transform="matrix(1, 0, 0, 1, -781.8868684768677, -520.3773500919342)" style="paint-order: fill;"/><path fill="#F1910D" d="M1118.702,878.837c16.408,0,29.249,7.609,29.249,28.06v30.794c0,20.45-12.841,28.06-29.249,28.06h-21.044&#10;&#9;&#9;c-4.875,0-8.085-2.615-8.085-5.588v-75.737c0-2.973,3.21-5.588,8.085-5.588H1118.702z M1108.12,895.007v54.573h10.582&#10;&#9;&#9;c6.658,0,10.701-3.805,10.701-11.89v-30.794c0-8.085-4.043-11.89-10.701-11.89H1108.12z" transform="matrix(1, 0, 0, 1, -781.8868684768677, -520.3773500919342)" style="paint-order: fill;"/><path d="M 443.2983703613281 467.231201171875 C 443.2983703613281 467.6978759765625 443.2983703613281 467.93121337890625 443.2983703613281 467.93121337890625 C 442.925048828125 467.93121337890625 442.6450500488281 467.6978759765625 442.4583740234375 467.231201171875 C 441.1517028808594 463.8712158203125 440.5917053222656 460.2778625488281 440.77838134765625 456.4512023925781 C 440.9650573730469 452.6245422363281 441.6183776855469 448.70452880859375 442.7383728027344 444.6911926269531 C 443.8583984375 440.6778564453125 445.37506103515625 436.6412048339844 447.28839111328125 432.5812072753906 C 449.20172119140625 428.5212097167969 451.27838134765625 424.577880859375 453.51837158203125 420.7511901855469 C 450.9983825683594 419.0711975097656 448.9217224121094 416.9478759765625 447.28839111328125 414.3811950683594 C 445.6550598144531 411.8145446777344 444.2317199707031 409.08453369140625 443.01837158203125 406.1911926269531 C 441.5250549316406 402.73785400390625 440.2650451660156 399.23785400390625 439.2383728027344 395.6911926269531 C 438.21173095703125 392.14453125 437.2317199707031 388.6911926269531 436.2983703613281 385.3312072753906 C 435.36505126953125 381.97119140625 434.3850402832031 378.7745361328125 433.3583984375 375.7412109375 C 432.33172607421875 372.7078857421875 431.1183776855469 369.9778747558594 429.7183837890625 367.55120849609375 C 429.7183837890625 367.1778564453125 429.7650451660156 367.0378723144531 429.8583984375 367.1311950683594 C 432.751708984375 369.1845397949219 435.0150451660156 371.70452880859375 436.64837646484375 374.6911926269531 C 438.2817077636719 377.6778564453125 439.6350402832031 380.8978576660156 440.7083740234375 384.3511962890625 C 441.7817077636719 387.8045349121094 442.7850646972656 391.3745422363281 443.7183837890625 395.06121826171875 C 444.6517028808594 398.74786376953125 445.86505126953125 402.2712097167969 447.3583984375 405.6311950683594 C 448.3850402832031 407.96453857421875 449.52838134765625 410.134521484375 450.78839111328125 412.1412048339844 C 452.0483703613281 414.1478576660156 453.6117248535156 416.0378723144531 455.4783935546875 417.81121826171875 L 457.2983703613281 414.8712158203125 C 456.6450500488281 414.03118896484375 456.1550598144531 413.2611999511719 455.828369140625 412.56121826171875 C 455.501708984375 411.8612060546875 455.4783935546875 411.4178771972656 455.7583923339844 411.231201171875 C 455.9450378417969 411.231201171875 456.271728515625 411.39453125 456.7383728027344 411.72119140625 C 457.2050476074219 412.0478515625 457.7183837890625 412.5378723144531 458.27838134765625 413.1911926269531 C 459.21173095703125 412.16455078125 459.9117126464844 411.13787841796875 460.3783874511719 410.1112060546875 C 458.6983947753906 407.03118896484375 457.2283935546875 403.81121826171875 455.9683837890625 400.4512023925781 C 454.7083740234375 397.0911865234375 453.51837158203125 393.63787841796875 452.39837646484375 390.0911865234375 C 451.4650573730469 387.10455322265625 450.48504638671875 384.2112121582031 449.4583740234375 381.41119384765625 C 448.43170166015625 378.6112060546875 446.98504638671875 375.577880859375 445.1183776855469 372.31121826171875 C 445.0250549316406 372.1245422363281 444.90838623046875 371.9612121582031 444.76837158203125 371.8211975097656 C 444.6283874511719 371.68121337890625 444.60504150390625 371.5645446777344 444.6983947753906 371.47119140625 C 444.8850402832031 371.2845458984375 445.21173095703125 371.3312072753906 445.6783752441406 371.6112060546875 C 447.6383972167969 372.4512023925781 449.3883972167969 374.0145263671875 450.9283752441406 376.30120849609375 C 452.4683837890625 378.5878601074219 453.8450622558594 381.08453369140625 455.0583801269531 383.79119873046875 C 456.271728515625 386.49786376953125 457.32171630859375 389.18121337890625 458.2083740234375 391.8411865234375 C 459.0950622558594 394.5011901855469 459.8183898925781 396.6245422363281 460.3783874511719 398.2112121582031 L 463.3183898925781 405.91119384765625 C 468.5450439453125 398.25787353515625 473.56170654296875 390.79119873046875 478.3683776855469 383.5111999511719 C 483.175048828125 376.231201171875 486.7917175292969 369.0911865234375 489.2183837890625 362.0911865234375 C 489.4050598144531 361.6245422363281 489.4983825683594 361.3912048339844 489.4983825683594 361.3912048339844 C 489.68505859375 361.20452880859375 489.8017272949219 361.3211975097656 489.848388671875 361.7412109375 C 489.8950500488281 362.16119384765625 489.91839599609375 362.4178771972656 489.91839599609375 362.5111999511719 C 489.45172119140625 367.8312072753906 488.0517272949219 373.057861328125 485.7183837890625 378.1911926269531 C 483.3850402832031 383.32452392578125 480.6083984375 388.4345397949219 477.38836669921875 393.5212097167969 C 474.16839599609375 398.60784912109375 470.69171142578125 403.7178649902344 466.9583740234375 408.8511962890625 C 463.22503662109375 413.9845275878906 459.771728515625 419.16455078125 456.598388671875 424.3912048339844 C 454.5450439453125 427.7511901855469 452.6317138671875 431.2978515625 450.8583984375 435.03118896484375 C 449.0850524902344 438.7645263671875 447.5683898925781 442.5212097167969 446.3083801269531 446.30120849609375 C 445.0483703613281 450.0812072753906 444.1383972167969 453.76788330078125 443.578369140625 457.3612060546875 C 443.01837158203125 460.95452880859375 442.925048828125 464.2445373535156 443.2983703613281 467.231201171875 M 471.01837158203125 430.55120849609375 C 469.6183776855469 432.79119873046875 468.12506103515625 435.1011962890625 466.53839111328125 437.481201171875 C 464.95172119140625 439.8612060546875 463.3417053222656 442.17120361328125 461.7083740234375 444.41119384765625 C 460.0750427246094 446.6512145996094 458.51171875 448.7978820800781 457.01837158203125 450.8511962890625 C 455.5250549316406 452.904541015625 454.1717224121094 454.7712097167969 452.9583740234375 456.4512023925781 C 452.4917297363281 457.1045227050781 452.07171630859375 457.59454345703125 451.6983947753906 457.92120361328125 C 451.3250427246094 458.24786376953125 451.0917053222656 458.3645324707031 450.9983825683594 458.2712097167969 C 450.81170654296875 458.2712097167969 450.81170654296875 457.9912109375 450.9983825683594 457.43121337890625 C 451.18505859375 456.8712158203125 451.3717041015625 456.3578796386719 451.5583801269531 455.8912048339844 C 454.5450439453125 448.23785400390625 458.3017272949219 440.8645324707031 462.828369140625 433.7712097167969 C 467.35504150390625 426.6778564453125 471.9983825683594 419.5378723144531 476.7583923339844 412.3511962890625 C 479.6517333984375 407.8712158203125 482.5917053222656 403.36785888671875 485.578369140625 398.8411865234375 C 488.5650634765625 394.3145446777344 491.1783752441406 389.1112060546875 493.41839599609375 383.231201171875 C 493.60504150390625 382.7645263671875 493.675048828125 382.4845275878906 493.6283874511719 382.3912048339844 C 493.58172607421875 382.2978515625 493.6517333984375 382.2511901855469 493.83837890625 382.2511901855469 C 494.0250549316406 382.34454345703125 494.1183776855469 382.53118896484375 494.1183776855469 382.81121826171875 C 494.1183776855469 383.0911865234375 494.1183776855469 383.3712158203125 494.1183776855469 383.65118408203125 C 494.1183776855469 385.70452880859375 493.6983947753906 388.0378723144531 492.8583984375 390.65118408203125 C 492.01837158203125 393.2645263671875 490.89837646484375 396.04119873046875 489.4983825683594 398.981201171875 C 488.098388671875 401.92120361328125 486.5583801269531 404.9078674316406 484.8783874511719 407.9411926269531 C 483.1983947753906 410.97454833984375 481.49505615234375 413.8912048339844 479.76837158203125 416.6911926269531 C 478.0417175292969 419.4912109375 476.40838623046875 422.0812072753906 474.8683776855469 424.4612121582031 C 473.328369140625 426.8411865234375 472.0450439453125 428.8712158203125 471.01837158203125 430.55120849609375 M 484.3183898925781 397.0911865234375 C 481.0517272949219 402.1311950683594 477.4583740234375 407.3578796386719 473.53839111328125 412.7712097167969 C 469.6183776855469 418.1845397949219 465.74505615234375 423.1778564453125 461.91839599609375 427.7511901855469 C 461.7317199707031 427.9378662109375 461.31170654296875 428.3811950683594 460.65838623046875 429.0812072753906 C 460.00506591796875 429.78118896484375 459.53839111328125 430.0378723144531 459.2583923339844 429.8511962890625 C 459.07171630859375 429.66455078125 459.1417236328125 429.1745300292969 459.4683837890625 428.3811950683594 C 459.7950439453125 427.5878601074219 460.0517272949219 427.05120849609375 460.2383728027344 426.7712097167969 C 460.8917236328125 425.46453857421875 461.68505859375 423.9478759765625 462.6183776855469 422.22119140625 C 463.5517272949219 420.4945373535156 464.5317077636719 418.7445373535156 465.5583801269531 416.97119140625 C 466.5850524902344 415.1978759765625 467.6350402832031 413.47119140625 468.7083740234375 411.79119873046875 C 469.7817077636719 410.1112060546875 470.7383728027344 408.66455078125 471.578369140625 407.4512023925781 C 471.95172119140625 406.8912048339844 472.6983947753906 405.7012023925781 473.8183898925781 403.8811950683594 C 474.9383850097656 402.06121826171875 476.1983947753906 399.91455078125 477.598388671875 397.4411926269531 C 478.9983825683594 394.9678649902344 480.4917297363281 392.2845458984375 482.078369140625 389.3912048339844 C 483.6650390625 386.49786376953125 485.1117248535156 383.6745300292969 486.41839599609375 380.92120361328125 C 487.72503662109375 378.1678771972656 488.8450622558594 375.6011962890625 489.77838134765625 373.22119140625 C 490.71173095703125 370.8411865234375 491.22503662109375 368.9512023925781 491.3183898925781 367.55120849609375 C 491.50506591796875 366.61785888671875 491.6450500488281 366.15118408203125 491.7383728027344 366.15118408203125 C 491.925048828125 366.15118408203125 492.0650634765625 366.3612060546875 492.15838623046875 366.78118896484375 C 492.251708984375 367.2012023925781 492.3450622558594 367.5045166015625 492.4383850097656 367.6911926269531 C 492.81170654296875 369.65118408203125 492.81170654296875 371.9378662109375 492.4383850097656 374.55120849609375 C 492.0650634765625 377.16455078125 491.4817199707031 379.8478698730469 490.6883850097656 382.6011962890625 C 489.8950500488281 385.35455322265625 488.9150390625 388.0145263671875 487.7483825683594 390.5812072753906 C 486.58172607421875 393.1478576660156 485.4383850097656 395.31787109375 484.3183898925781 397.0911865234375 M 447.4983825683594 381.1311950683594 C 448.5250549316406 384.58453369140625 449.52838134765625 388.24786376953125 450.5083923339844 392.1212158203125 C 451.4883728027344 395.9945373535156 452.3050537109375 399.7511901855469 452.9583740234375 403.3912048339844 C 453.0517272949219 403.577880859375 453.0750427246094 403.8811950683594 453.02838134765625 404.30120849609375 C 452.9817199707031 404.72119140625 452.86505126953125 405.0245361328125 452.6783752441406 405.2112121582031 C 452.4917297363281 405.3045349121094 452.21173095703125 405.16455078125 451.83837890625 404.79119873046875 C 451.4650573730469 404.4178771972656 451.2317199707031 404.13787841796875 451.1383972167969 403.9512023925781 C 450.6717224121094 403.2978515625 450.15838623046875 402.4578857421875 449.598388671875 401.43121337890625 C 449.03839111328125 400.404541015625 448.5250549316406 399.3312072753906 448.0583801269531 398.2112121582031 C 447.5917053222656 397.0911865234375 447.14837646484375 395.97119140625 446.7283935546875 394.8511962890625 C 446.3083801269531 393.731201171875 445.9583740234375 392.7511901855469 445.6783752441406 391.91119384765625 C 445.39837646484375 390.9778747558594 444.8150634765625 389.36785888671875 443.9283752441406 387.0812072753906 C 443.0417175292969 384.7945251464844 442.0150451660156 382.3912048339844 440.848388671875 379.8712158203125 C 439.68170166015625 377.3511962890625 438.4683837890625 374.97119140625 437.2083740234375 372.731201171875 C 435.9483947753906 370.4912109375 434.8050537109375 368.9512023925781 433.77838134765625 368.1112060546875 C 433.2183837890625 367.55120849609375 433.0317077636719 367.2712097167969 433.2183837890625 367.2712097167969 C 433.31170654296875 367.1778564453125 433.4983825683594 367.1778564453125 433.77838134765625 367.2712097167969 C 434.0583801269531 367.3645324707031 434.2917175292969 367.4578857421875 434.4783935546875 367.55120849609375 C 435.9717102050781 368.01788330078125 437.44171142578125 368.7645263671875 438.8883972167969 369.79119873046875 C 440.3350524902344 370.81787109375 441.6417236328125 371.9845275878906 442.8083801269531 373.29119873046875 C 443.97503662109375 374.5978698730469 444.9550476074219 375.9278564453125 445.7483825683594 377.28118896484375 C 446.5417175292969 378.634521484375 447.12506103515625 379.9178771972656 447.4983825683594 381.1311950683594 M 448.33837890625 459.9512023925781 C 447.9650573730469 461.72454833984375 447.7083740234375 463.2878723144531 447.5683898925781 464.6412048339844 C 447.4283752441406 465.9945373535156 447.3583984375 467.1845397949219 447.3583984375 468.2112121582031 C 447.3583984375 468.3978576660156 447.3583984375 468.6311950683594 447.3583984375 468.91119384765625 C 447.3583984375 469.1911926269531 447.2183837890625 469.3312072753906 446.9383850097656 469.3312072753906 C 446.751708984375 469.3312072753906 446.5417175292969 469.21453857421875 446.3083801269531 468.981201171875 C 446.0750427246094 468.74786376953125 445.9117126464844 468.4912109375 445.8183898925781 468.2112121582031 C 445.6317138671875 467.7445373535156 445.4450378417969 467.2778625488281 445.2583923339844 466.8111877441406 C 445.07171630859375 466.34454345703125 444.93170166015625 465.807861328125 444.83837890625 465.2012023925781 C 444.74505615234375 464.59454345703125 444.74505615234375 463.80120849609375 444.83837890625 462.8211975097656 C 444.93170166015625 461.8411865234375 445.1183776855469 460.6045227050781 445.39837646484375 459.1112060546875 C 445.6783752441406 457.8978576660156 446.098388671875 456.404541015625 446.65838623046875 454.6311950683594 C 447.2183837890625 452.8578796386719 447.8250427246094 451.154541015625 448.4783935546875 449.5212097167969 C 449.1317138671875 447.88787841796875 449.76171875 446.557861328125 450.3683776855469 445.53118896484375 C 450.97503662109375 444.5045471191406 451.4650573730469 444.08453369140625 451.83837890625 444.2712097167969 C 451.93170166015625 444.3645324707031 451.9550476074219 444.6911926269531 451.90838623046875 445.2511901855469 C 451.8617248535156 445.8111877441406 451.74505615234375 446.4411926269531 451.5583801269531 447.1412048339844 C 451.3717041015625 447.8411865234375 451.18505859375 448.51788330078125 450.9983825683594 449.17120361328125 C 450.81170654296875 449.82452392578125 450.6717224121094 450.29119873046875 450.578369140625 450.5711975097656 C 450.1117248535156 452.1578674316406 449.7150573730469 453.72119140625 449.3883972167969 455.2611999511719 C 449.06170654296875 456.80120849609375 448.71173095703125 458.3645324707031 448.33837890625 459.9512023925781 Z" transform="matrix(1, 0, 0, 1, -52.8301887512207, -1.000004529953003)" style="fill: rgb(0, 149, 30); white-space: pre; color: rgb(51, 51, 51); paint-order: fill; stroke: rgb(0, 0, 0); stroke-width: 0; stroke-opacity: 0.79; fill-opacity: 1;"/>
<path fill="#F1910D" d="M1376.104,583.121c-56.545-56.543-147.463-58.268-206.104-5.177c1.846,1.672,3.662,3.396,5.441,5.177&#10;&#9;&#9;l19.057,19.056c21-18.417,47.641-28.481,75.832-28.481c30.77,0,59.699,11.982,81.457,33.74c44.914,44.916,44.914,117.999,0,162.913&#10;&#9;&#9;c-21.758,21.759-50.688,33.741-81.457,33.741c-30.771,0-59.699-11.982-81.457-33.74l-56.887-56.887&#10;&#9;&#9;c2.641-7.249,3.129-15.133,1.694-22.371c-2.434-12.247-76.073-68.541-76.073-68.541l-4.329,4.329l60.972,60.971l-5.595,5.597&#10;&#9;&#9;l-60.972-60.972l-6.357,6.356l60.972,60.972l-5.575,5.575l-60.972-60.972l-6.127,6.128l60.957,60.957l-5.603,5.603l-60.964-60.963&#10;&#9;&#9;l-5.642,5.642c0,0,56.294,73.636,68.535,76.076c6.444,1.277,13.379,1.025,19.931-0.903l57.719,57.719&#10;&#9;&#9;c29.161,29.161,67.466,43.742,105.772,43.742c38.305,0,76.611-14.581,105.773-43.742&#10;&#9;&#9;C1434.426,736.342,1434.426,641.443,1376.104,583.121z" transform="matrix(1, 0, 0, 1, -892.8302622751308, -515.0943603515625)" style="fill: rgb(211, 141, 55);"/><path fill="#96C01F" d="M1164.558,794.665l-19.06-19.06c-45.197,39.578-114.198,37.831-157.285-5.257&#10;&#9;&#9;c-21.757-21.757-33.74-50.686-33.74-81.456s11.983-59.699,33.74-81.457c44.916-44.915,117.998-44.915,162.914,0l62.82,62.822&#10;&#9;&#9;c-0.018,0.039-0.029,0.067-0.031,0.073c-6.305,16.289,0.137,39.196,19.189,58.25c20.793,20.792,54.826,22.575,70.566,7.131&#10;&#9;&#9;c0.006-0.007,0.02-0.019,0.025-0.026c0.014-0.013,0.014-0.013,0.033-0.033c15.441-15.737,13.656-49.771-7.135-70.562&#10;&#9;&#9;c-19.053-19.053-41.957-25.512-58.262-19.179c-0.02,0.008-0.051,0.02-0.072,0.027l-43.764-43.763l-19.057-19.056&#10;&#9;&#9;c-0.891-0.892-1.791-1.769-2.699-2.633c-0.885-0.84-1.776-1.667-2.676-2.481c-58.639-53.153-149.604-51.451-206.169,5.114&#10;&#9;&#9;c-58.322,58.322-58.322,153.221,0,211.544c29.162,29.161,67.468,43.742,105.772,43.742c35.967,0,71.933-12.856,100.33-38.566&#10;&#9;&#9;C1168.153,798.169,1166.338,796.446,1164.558,794.665z M1296.619,703.728c-7.057-21.178-24.826-38.696-43.186-42.616l-0.627-0.628&#10;&#9;&#9;C1275.25,655.99,1300.465,679.359,1296.619,703.728z" transform="matrix(1, 0, 0, 1, -892.8302622751308, -515.0943603515625)" style="fill: rgb(47, 149, 3);"/>
</svg>